<?xml version="1.0" encoding="UTF-8"?>
<svg id="Layer_1" data-name="Layer 1" xmlns="http://www.w3.org/2000/svg" version="1.1" viewBox="0 0 585 138.75">
  <defs>
    <style>
      .cls-1 {
        fill: #0d2438;
      }

      .cls-1, .cls-2 {
        stroke-width: 0px;
      }

      .cls-2 {
        fill: #d45a33;
      }
    </style>
  </defs>
  <polygon class="cls-2" points="57.33 82.58 44.63 85.16 59.73 114.12 79.66 114.38 84.24 102.25 64.31 102 57.33 82.58"/>
  <g>
    <path class="cls-1" d="M565.9,102.79l-35.08-65.91c-.64-1.21-1.65-2.21-3.03-3.03-.53-.31-1.07-.55-1.6-.74-.84-.31-1.67-.48-2.49-.48h-19.03c-.83,0-1.67.17-2.52.48-.54.19-1.08.43-1.63.74-1.42.82-2.44,1.82-3.08,3.03l-30.11,54.43h-61.18c-2.76,0-4.77-.02-6.01-.05-1.24-.04-2.25-.2-3.03-.48-1.28-.5-2.23-1.38-2.87-2.66-.64-1.28-.96-2.62-.96-4.04s.32-2.76.96-4.04c.64-1.27,1.59-2.16,2.87-2.66.35-.14.8-.25,1.33-.32.53-.07,1.01-.14,1.43-.21.5-.07.99-.11,1.49-.11h59.21c1.34,0,2.5-.46,3.45-1.38.96-.92,1.44-2.05,1.44-3.4v-4.89c0-1.34-.48-2.5-1.44-3.46-.95-.95-2.11-1.43-3.45-1.43h-59.21c-.5,0-.99-.03-1.49-.11-.43-.07-.9-.16-1.43-.27-.53-.11-.98-.27-1.33-.48-1.21-.57-2.09-1.41-2.66-2.52-.57-1.11-.85-2.27-.85-3.48,0-1.14.28-2.22.85-3.22s1.45-1.71,2.66-2.14c.56-.21,1.08-.37,1.54-.48.46-.11,1.01-.2,1.65-.27.64-.07,1.42-.12,2.34-.16.92-.04,2.09-.05,3.51-.05h54.43c1.34,0,2.5-.46,3.45-1.37.96-.91,1.44-2.04,1.44-3.38v-6.87c0-1.34-.48-2.46-1.44-3.38-.4-.39-.85-.67-1.32-.89-.65-.31-1.36-.48-2.13-.48h-59.21c-3.19,0-6.02.16-8.5.48-.94.12-1.83.26-2.66.42-3.05.6-5.6,1.4-7.65,2.39-1.85.92-3.31,1.98-4.41,3.19-1.1,1.21-1.95,2.52-2.55,3.93-.6,1.42-1.01,2.91-1.22,4.46-.21,1.56-.32,3.12-.32,4.68v34.34c0,1.89.14,3.65.41,5.29h-27.19l-6.25-6.54c2.14-.14,4.15-.37,6.03-.69,1.89-.32,3.63-.87,5.23-1.65,1.6-.78,3.04-1.82,4.33-3.14,1.28-1.31,2.39-3.03,3.31-5.16.85-1.92,1.47-4.34,1.87-7.28.37-2.79.6-5.68.68-8.64-.02-1.7-.08-3.33-.2-4.83-.14-1.77-.32-3.36-.53-4.78-.43-2.55-1.25-4.92-2.46-7.12-1.21-2.2-2.95-4-5.23-5.42-1.5-.99-3.19-1.75-5.07-2.28-1.88-.53-3.88-.92-5.98-1.17-2.1-.25-4.2-.39-6.29-.43-2.09-.04-4.02-.05-5.79-.05h-69.34c-.11,0-.21.02-.31.03-.13,0-.25-.03-.38-.03h-19.03c-.82,0-1.66.17-2.51.48-.54.19-1.08.43-1.63.74-1.42.82-2.44,1.82-3.08,3.03l-29.52,53.36h-44.3c-1.56,0-2.34-.36-2.34-1.06,0-.57.46-1.17,1.38-1.81l49.11-34.97c1.06-.78,1.98-1.9,2.76-3.35.78-1.45,1.17-2.85,1.17-4.2v-7.33c0-1.34-.48-2.5-1.43-3.46-.42-.41-.87-.72-1.36-.95-.64-.31-1.33-.48-2.09-.48h-78.24c-.76,0-1.45.17-2.08.48-.48.23-.92.54-1.32.95-.92.96-1.38,2.11-1.38,3.46v7.12c0,1.35.46,2.5,1.38,3.46.92.95,2.05,1.43,3.4,1.43h45.07c1.56,0,2.34.35,2.34,1.06,0,.5-.46,1.06-1.38,1.7l-48.26,34.87c-1.06.78-1.98,1.92-2.76,3.4-.78,1.49-1.17,2.91-1.17,4.25h0v7.44h0c0,1.35.46,2.48,1.38,3.4.66.66,1.44,1.08,2.32,1.26.35.07.7.12,1.08.12h87.86c.4,0,.8-.05,1.21-.12.95-.17,1.92-.53,2.88-1.1,1.38-.81,2.39-1.82,3.03-3.03l25.41-47.73c.64-1.13,1.38-1.7,2.23-1.7.92,0,1.7.6,2.34,1.81l24.88,47.62c.56,1.21,1.54,2.22,2.92,3.03.97.57,1.93.93,2.89,1.1.4.07.81.12,1.21.12h15.31c.44,0,.82-.05,1.17-.12,1.27-.27,1.91-1.04,1.91-2.33,0-.49-.18-1.1-.53-1.81l-27.67-51.98h56.99c2.98,0,4.96.96,5.95,2.87.99,1.91,1.49,4.29,1.49,7.12l-1.59,2.73c-.57.89-1.33,1.63-2.28,2.23-.96.6-2.14.9-3.56.9h-15.09c-1.35,0-2.5.46-3.46,1.38-.96.92-1.43,2.06-1.43,3.4v9.25c0,1.35.35,2.82,1.06,4.41.71,1.59,1.56,2.82,2.55,3.67l10.43,15.07c.99.92,2.32,1.69,3.99,2.28,1.09.4,2.11.65,3.07.79.5.07.99.12,1.45.12h22.51c.47,0,.87-.05,1.2-.12h38.39c1.36.07,2.77.12,4.28.12h77.68c.4,0,.8-.05,1.21-.12.95-.17,1.92-.53,2.88-1.1,1.38-.81,2.39-1.82,3.03-3.03l25.41-47.73c.64-1.13,1.38-1.7,2.23-1.7.92,0,1.7.6,2.34,1.81l24.88,47.62c.56,1.21,1.54,2.22,2.92,3.03.97.57,1.93.93,2.89,1.1.4.07.8.12,1.21.12h15.31c.44,0,.82-.05,1.17-.12,1.27-.27,1.91-1.04,1.91-2.33,0-.49-.18-1.1-.53-1.81"/>
    <polygon class="cls-2" points="50.63 72.22 40.69 63.91 27.46 93.77 39.69 109.5 52.02 105.53 39.79 89.79 50.63 72.22"/>
    <polygon class="cls-2" points="34.05 63.01 54.54 60.53 54.85 47.57 23.25 55.85 18.57 75.22 29.37 82.38 34.05 63.01"/>
    <polygon class="cls-2" points="51.41 41.82 66.12 56.3 76.44 48.46 50.28 28.91 32.21 37.33 33.35 50.24 51.41 41.82"/>
    <polygon class="cls-2" points="76.66 62.71 89.22 65.89 88.19 33.25 70.34 24.38 60.95 33.31 78.8 42.18 76.66 62.71"/>
    <polygon class="cls-2" points="78.21 74.95 83.55 86.75 108.43 65.59 104.24 46.1 91.4 44.34 95.59 63.82 78.21 74.95"/>
    <polygon class="cls-2" points="89.15 90.44 69.61 83.79 63.71 95.33 95.77 101.58 108.39 86.16 101.77 75.02 89.15 90.44"/>
  </g>
</svg>